<svg xmlns="http://www.w3.org/2000/svg" width="388.84pt" height="115.02pt" xmlns:xlink="http://www.w3.org/1999/xlink" version="1"><defs><linearGradient id="c"><stop offset="0" stop-color="#b8b8b8" stop-opacity=".498"/><stop offset="1" stop-color="#7f7f7f" stop-opacity="0"/></linearGradient><linearGradient><stop offset="0" stop-color="#7f7f7f" stop-opacity=".5"/><stop offset="1" stop-color="#7f7f7f" stop-opacity="0"/></linearGradient><linearGradient><stop offset="0" stop-color="#b2b2b2" stop-opacity=".5"/><stop offset="1" stop-color="#b3b3b3" stop-opacity="0"/></linearGradient><linearGradient><stop offset="0" stop-color="#f4f4f4"/><stop offset="1" stop-color="#fff"/></linearGradient><linearGradient id="a"><stop offset="0" stop-color="#ffd43b"/><stop offset="1" stop-color="#ffe873"/></linearGradient><linearGradient id="b"><stop offset="0" stop-color="#5a9fd4"/><stop offset="1" stop-color="#306998"/></linearGradient><linearGradient x1="224.24" x2="-65.309" y1="144.757" y2="144.757" xlink:href="#a" gradientUnits="userSpaceOnUse" gradientTransform="translate(100.27 99.611)"/><linearGradient x1="172.942" x2="26.67" y1="77.476" y2="76.313" xlink:href="#b" gradientUnits="userSpaceOnUse" gradientTransform="translate(100.27 99.611)"/><linearGradient x1="172.942" x2="26.67" y1="77.476" y2="76.313" xlink:href="#b" gradientUnits="userSpaceOnUse" gradientTransform="translate(100.27 99.611)"/><linearGradient x1="224.24" x2="-65.309" y1="144.757" y2="144.757" xlink:href="#a" gradientUnits="userSpaceOnUse" gradientTransform="translate(100.27 99.611)"/><linearGradient x1="172.942" x2="26.67" y1="77.476" y2="76.313" xlink:href="#b" gradientUnits="userSpaceOnUse" gradientTransform="translate(100.27 99.611)"/><linearGradient x1="224.24" x2="-65.309" y1="144.757" y2="144.757" xlink:href="#a" gradientUnits="userSpaceOnUse" gradientTransform="translate(100.27 99.611)"/><linearGradient x1="224.24" x2="-65.309" y1="144.757" y2="144.757" xlink:href="#a" gradientUnits="userSpaceOnUse" gradientTransform="matrix(.563 0 0 .568 -11.597 -7.61)"/><linearGradient x1="172.942" x2="26.67" y1="76.176" y2="76.313" xlink:href="#b" gradientUnits="userSpaceOnUse" gradientTransform="matrix(.563 0 0 .568 -11.597 -7.61)"/><radialGradient cx="61.519" cy="132.286" r="29.037" xlink:href="#c" fx="61.519" fy="132.286" gradientTransform="matrix(1 0 0 .178 0 108.743)" gradientUnits="userSpaceOnUse"/><linearGradient id="e" x1="150.961" x2="112.031" y1="192.352" y2="137.273" xlink:href="#a" gradientUnits="userSpaceOnUse" gradientTransform="matrix(.563 0 0 .568 -9.4 -5.305)"/><linearGradient id="d" x1="26.649" x2="135.665" y1="20.604" y2="114.398" xlink:href="#b" gradientUnits="userSpaceOnUse" gradientTransform="matrix(.563 0 0 .568 -9.4 -5.305)"/></defs><g><g><g transform="matrix(1.064 0 0 1.064 -.287 5.259)"><ellipse cx="45.721" cy="19.716" fill="#fff" fill-rule="evenodd" rx="6.814" ry="6.756"/><path fill="url(#d)" d="M60.5 6.4c-4.57.02-8.95.4-12.8 1.1-11.35 2-13.4 6.2-13.4 13.93v10.22h26.8v3.4H24.23c-7.8 0-14.62 4.7-16.75 13.6-2.46 10.2-2.57 16.58 0 27.25 1.9 7.94 6.46 13.6 14.25 13.6h9.22V77.23c0-8.85 7.65-16.65 16.75-16.65h26.78c7.45 0 13.4-6.15 13.4-13.64V21.43c0-7.27-6.12-12.73-13.4-13.94-4.6-.78-9.4-1.12-13.97-1.1zM46 14.62c2.78 0 5.04 2.3 5.04 5.12 0 2.82-2.26 5.1-5.03 5.1-2.77 0-5.02-2.28-5.02-5.1s2.25-5.12 5.03-5.12z"/></g><g transform="matrix(1.064 0 0 1.064 -.287 5.259)"><ellipse cx="76.124" cy="104.752" fill="#fff" fill-rule="evenodd" ry="6.756" rx="6.814"/><path fill="url(#e)" d="M91.23 35.05v11.9c0 9.24-7.83 17-16.75 17H47.7c-7.34 0-13.4 6.3-13.4 13.64v25.52c0 7.26 6.3 11.54 13.4 13.62 8.48 2.5 16.62 2.95 26.78 0 6.75-1.95 13.4-5.9 13.4-13.62V92.9H61.1v-3.4h40.2c7.78 0 10.7-5.44 13.4-13.6 2.8-8.4 2.68-16.48 0-27.25-1.93-7.76-5.6-13.6-13.4-13.6H91.22zM76.17 99.7c2.78 0 5.03 2.3 5.03 5.1 0 2.83-2.25 5.13-5.03 5.13-2.77 0-5.03-2.3-5.03-5.13 0-2.8 2.26-5.1 5.03-5.1z"/></g></g><g fill="#e6e6e6" font-family="Liberation Sans" letter-spacing="0" word-spacing="0"><path d="M164.83 55.6l-4.72-12.07h-18.8l-4.74 12.07h-5.8l16.84-41.28h6.36l16.58 41.28h-5.7zm-11.7-30.06q-.46-1.17-.9-2.37-.4-1.2-.73-2.17-.32-1-.56-1.64-.2-.67-.23-.82-.05.15-.26.82-.2.67-.55 1.67-.34 1-.77 2.2-.42 1.2-.85 2.37L143 39.16h15.44l-5.3-13.62z" style="line-height:105.99999428%;-inkscape-font-specification:'Liberation Sans';text-align:start"/><path d="M198.55 46.84q0 2.23-.88 3.98-.85 1.73-2.5 2.93-1.63 1.18-4.03 1.82-2.38.62-5.45.62-2.77 0-5-.45-2.2-.4-3.86-1.35-1.67-.94-2.8-2.46-1.13-1.55-1.65-3.78l4.65-.9q.67 2.54 2.78 3.74 2.1 1.17 5.86 1.17 1.7 0 3.1-.23 1.43-.24 2.45-.8 1.03-.58 1.6-1.52.57-.96.57-2.37 0-1.43-.67-2.34-.68-.93-1.88-1.55-1.2-.6-2.93-1.05-1.7-.47-3.75-1.03-1.9-.5-3.8-1.1-1.86-.62-3.38-1.62-1.5-1.03-2.44-2.52-.93-1.5-.93-3.75 0-4.34 3.07-6.6 3.1-2.28 9.03-2.28 5.24 0 8.32 1.85 3.1 1.84 3.92 5.92l-4.75.58q-.27-1.23-.97-2.05-.7-.85-1.7-1.35-1-.52-2.26-.73-1.23-.23-2.57-.23-3.58 0-5.28 1.07-1.7 1.1-1.7 3.28 0 1.3.62 2.14.63.8 1.75 1.4 1.14.55 2.72 1 1.58.4 3.5.87 1.25.32 2.57.7 1.3.36 2.54.88 1.26.5 2.35 1.2 1.1.68 1.93 1.65.82.96 1.3 2.25.5 1.3.5 3z" style="line-height:105.99999428%;-inkscape-font-specification:'Liberation Sans';text-align:start"/><path d="M228.55 46.84q0 2.23-.88 3.98-.85 1.73-2.5 2.93-1.63 1.18-4.03 1.82-2.38.62-5.45.62-2.77 0-5-.45-2.2-.4-3.86-1.35-1.67-.94-2.8-2.46-1.13-1.55-1.65-3.78l4.65-.9q.67 2.54 2.78 3.74 2.1 1.17 5.86 1.17 1.7 0 3.1-.23 1.43-.24 2.45-.8 1.03-.58 1.6-1.52.57-.96.57-2.37 0-1.43-.67-2.34-.68-.93-1.88-1.55-1.2-.6-2.93-1.05-1.7-.47-3.75-1.03-1.9-.5-3.8-1.1-1.86-.62-3.38-1.62-1.5-1.03-2.44-2.52-.93-1.5-.93-3.75 0-4.34 3.07-6.6 3.1-2.28 9.03-2.28 5.24 0 8.32 1.85 3.1 1.84 3.92 5.92l-4.75.58q-.27-1.23-.97-2.05-.7-.85-1.7-1.35-1-.52-2.26-.73-1.23-.23-2.57-.23-3.58 0-5.28 1.07-1.7 1.1-1.7 3.28 0 1.3.62 2.14.63.8 1.75 1.4 1.14.55 2.72 1 1.58.4 3.5.87 1.25.32 2.57.7 1.3.36 2.54.88 1.26.5 2.35 1.2 1.1.68 1.93 1.65.82.96 1.3 2.25.5 1.3.5 3z" style="line-height:105.99999428%;-inkscape-font-specification:'Liberation Sans';text-align:start"/><path d="M261.57 39.72q0 8.32-3.67 12.4-3.66 4.07-10.63 4.07-3.3 0-5.92-1-2.6-1-4.42-3.06-1.8-2.05-2.76-5.12-.93-3.1-.93-7.3 0-16.4 14.2-16.4 3.7 0 6.36 1.02 2.7 1.03 4.4 3.08 1.73 2.05 2.55 5.12.82 3.08.82 7.18zm-5.54 0q0-3.7-.6-6.1-.54-2.4-1.66-3.83-1.08-1.45-2.66-2-1.57-.6-3.57-.6-2.02 0-3.66.63-1.6.58-2.75 2.05-1.15 1.43-1.76 3.84-.6 2.4-.6 6 0 3.7.66 6.12.64 2.4 1.76 3.84 1.14 1.44 2.66 2.02 1.55.6 3.37.6 2.03 0 3.67-.57 1.64-.58 2.8-2.02 1.13-1.42 1.74-3.86.63-2.43.63-6.12z" style="line-height:105.99999428%;-inkscape-font-specification:'Liberation Sans';text-align:start"/><path d="M272.17 39.6q0 2.73.38 5 .4 2.3 1.35 3.97.94 1.64 2.46 2.55 1.55.9 3.8.9 2.82 0 4.7-1.52 1.9-1.52 2.34-4.68l5.33.35q-.26 1.96-1.14 3.78-.9 1.8-2.4 3.2-1.5 1.37-3.67 2.22-2.17.82-5 .82-3.73 0-6.34-1.27-2.62-1.26-4.26-3.46-1.6-2.23-2.34-5.22-.74-3-.74-6.53 0-3.2.53-5.62.52-2.46 1.46-4.28.96-1.85 2.25-3.08 1.3-1.26 2.8-2 1.52-.75 3.2-1.07 1.66-.35 3.36-.35 2.66 0 4.74.73t3.58 2.02q1.52 1.26 2.46 3 .94 1.72 1.32 3.7l-5.42.42q-.4-2.65-2.08-4.2-1.67-1.55-4.75-1.55-2.24 0-3.77.76-1.5.74-2.43 2.26-.94 1.5-1.35 3.78-.38 2.3-.38 5.36z" style="line-height:105.99999428%;-inkscape-font-specification:'Liberation Sans';text-align:start"/><path d="M298.13 17.16v-5.04h5.27v5.04h-5.27zm0 38.44V23.9h5.27v31.7h-5.27z" style="line-height:105.99999428%;-inkscape-font-specification:'Liberation Sans';text-align:start"/><path d="M319.6 56.2q-4.77 0-7.17-2.53-2.4-2.52-2.4-6.92 0-3.13 1.17-5.12 1.2-2.03 3.1-3.17 1.93-1.14 4.4-1.58 2.46-.44 5-.5l7.12-.12v-1.72q0-1.97-.4-3.34-.42-1.38-1.27-2.23-.85-.85-2.13-1.23-1.26-.4-3-.4-1.52 0-2.75.22-1.23.2-2.14.8-.9.55-1.46 1.55-.56.97-.73 2.47l-5.5-.5q.28-1.88 1.1-3.43.82-1.58 2.32-2.72 1.52-1.15 3.78-1.76 2.28-.64 5.5-.64 5.98 0 9 2.75 3.02 2.72 3.02 7.9v13.66q0 2.35.6 3.55.63 1.17 2.36 1.17.43 0 .87-.06.43-.07.84-.16v3.28q-1 .24-2 .36-.96.1-2.07.1-1.5 0-2.58-.37-1.06-.4-1.74-1.2-.67-.8-1.02-1.98-.35-1.2-.44-2.78h-.18q-.85 1.52-1.87 2.75-1 1.22-2.34 2.1-1.34.85-3.07 1.32-1.7.47-3.93.47zm1.2-3.97q2.52 0 4.4-.9 1.9-.94 3.13-2.38 1.26-1.44 1.88-3.13.62-1.7.62-3.26v-2.6l-5.77.1q-1.93.04-3.7.3-1.72.24-3.04.97-1.3.74-2.1 2.05-.76 1.32-.76 3.46 0 2.58 1.38 3.98 1.4 1.4 3.98 1.4z" style="line-height:105.99999428%;-inkscape-font-specification:'Liberation Sans';text-align:start"/><path d="M348.93 39.6q0 2.73.38 5 .42 2.3 1.36 3.97.94 1.64 2.46 2.55 1.55.9 3.8.9 2.82 0 4.7-1.52 1.9-1.52 2.34-4.68l5.33.35q-.27 1.96-1.15 3.78-.88 1.8-2.4 3.2-1.5 1.37-3.67 2.22-2.16.82-5 .82-3.73 0-6.33-1.27-2.6-1.26-4.25-3.46-1.6-2.23-2.35-5.22-.73-3-.73-6.53 0-3.2.53-5.62.53-2.46 1.46-4.28.98-1.85 2.27-3.08 1.3-1.26 2.78-2 1.53-.75 3.2-1.07 1.67-.35 3.37-.35 2.66 0 4.74.73t3.58 2.02q1.52 1.26 2.46 3 .93 1.72 1.32 3.7l-5.42.42q-.4-2.65-2.08-4.2-1.67-1.55-4.75-1.55-2.26 0-3.78.76-1.5.74-2.44 2.26-.94 1.5-1.35 3.78-.37 2.3-.37 5.36zM362.88 63q0 1.2-.44 2.18-.44 1-1.4 1.7-.95.7-2.47 1.05-1.52.4-3.72.4-.6 0-1.26-.04-.66 0-1.4-.1v-2.87q1.45.17 2.53.17 1.2 0 2.02-.17.82-.18 1.32-.5.53-.3.73-.73.24-.44.24-.97 0-1.08-.9-1.67-.9-.6-3-.6-.4 0-.85 0-.42 0-.83.07l1.9-5.33h3.14l-1.13 2.93q2.75.1 4.13 1.26 1.38 1.2 1.38 3.2z" style="line-height:105.99999428%;-inkscape-font-specification:'Liberation Sans';text-align:start"/><path d="M383 56.2q-4.77 0-7.18-2.53-2.4-2.52-2.4-6.92 0-3.13 1.17-5.12 1.2-2.03 3.1-3.17 1.93-1.14 4.4-1.58 2.45-.44 5-.5l7.12-.12v-1.72q0-1.97-.4-3.34-.42-1.38-1.27-2.23-.85-.85-2.14-1.23-1.25-.4-2.97-.4-1.53 0-2.76.22-1.23.2-2.14.8-.9.55-1.46 1.55-.56.97-.73 2.47l-5.5-.5q.28-1.88 1.1-3.43.82-1.58 2.32-2.72 1.52-1.15 3.78-1.76 2.28-.64 5.5-.64 5.98 0 9 2.75 3 2.72 3 7.9v13.66q0 2.35.63 3.55.62 1.17 2.34 1.17.45 0 .9-.06.43-.07.84-.16v3.28q-1 .24-2 .36-.96.1-2.07.1-1.5 0-2.58-.37-1.06-.4-1.74-1.2-.67-.8-1.02-1.98-.35-1.2-.44-2.78h-.18q-.85 1.52-1.87 2.75-1 1.22-2.35 2.1-1.34.85-3.07 1.32-1.7.47-3.93.47zm1.2-3.97q2.52 0 4.4-.9 1.9-.94 3.13-2.38 1.26-1.44 1.88-3.13.62-1.7.62-3.26v-2.6l-5.77.1q-1.93.04-3.7.3-1.72.24-3.04.97-1.3.74-2.1 2.05-.76 1.32-.76 3.46 0 2.58 1.38 3.98 1.4 1.4 3.98 1.4zm8.26-31.82q-1.23 0-2.46-.5-1.23-.57-2.37-1.2-1.14-.7-2.2-1.22-1.02-.55-1.93-.55-1.6 0-2.4.9-.8.9-1.06 2.58h-2.66q.14-1.3.44-2.68.3-1.4.93-2.55.68-1.14 1.76-1.87 1.1-.74 2.82-.74 1.3 0 2.52.56 1.23.53 2.38 1.2 1.14.65 2.14 1.2 1.02.53 1.9.53 1.58 0 2.37-.9.82-.95 1.06-2.6h2.68q-.14 1.3-.44 2.7-.3 1.4-.93 2.53-.6 1.14-1.7 1.9-1.08.73-2.84.73z" style="line-height:105.99999428%;-inkscape-font-specification:'Liberation Sans';text-align:start"/><path d="M435.12 39.72q0 8.32-3.66 12.4-3.66 4.07-10.64 4.07-3.3 0-5.9-1-2.62-1-4.44-3.06-1.78-2.05-2.75-5.12-.94-3.1-.94-7.3 0-16.4 14.2-16.4 3.7 0 6.36 1.02 2.7 1.03 4.4 3.08 1.72 2.05 2.54 5.12.82 3.08.82 7.18zm-5.54 0q0-3.7-.58-6.1-.56-2.4-1.67-3.83-1.1-1.45-2.67-2-1.58-.6-3.57-.6-2.03 0-3.67.63-1.62.58-2.76 2.05-1.14 1.43-1.76 3.84-.57 2.4-.57 6 0 3.7.64 6.12.65 2.4 1.76 3.84 1.14 1.44 2.67 2.02 1.55.6 3.37.6 2.02 0 3.66-.57 1.64-.58 2.78-2.02 1.15-1.42 1.77-3.86.6-2.43.6-6.12z" style="line-height:105.99999428%;-inkscape-font-specification:'Liberation Sans';text-align:start"/><path d="M167.5 90.34q0 2.7-.9 5.04-.9 2.32-2.68 4.04-1.76 1.7-4.42 2.7-2.67 1-6.2 1h-12.14v16.08h-5.6V77.92h17.37q3.67 0 6.4.9 2.72.9 4.53 2.53 1.82 1.6 2.73 3.92.9 2.3.9 5.07zm-5.63.06q0-3.92-2.4-5.95-2.4-2.05-7.2-2.05h-11.1v16.3h11.32q4.83 0 7.08-2.15 2.3-2.13 2.3-6.15z" style="line-height:105.99999428%;-inkscape-font-specification:'Liberation Sans';text-align:start"/><path d="M188.4 119.2q-1.1 2.87-2.27 5.16-1.15 2.3-2.58 3.92-1.44 1.64-3.2 2.5-1.75.87-4.04.87-.98 0-1.83-.06-.85-.07-1.8-.27v-3.96q.57.1 1.27.12.7.05 1.2.05 2.32 0 4.3-1.73 2-1.73 3.5-5.5l.5-1.27-12.58-31.55h5.63l6.67 17.52q.3.8.73 2.1.47 1.33.9 2.65.48 1.3.83 2.37.35 1.05.4 1.32.1-.32.42-1.26.35-.97.76-2.14.45-1.17.9-2.37.43-1.2.72-2.1l6.2-18.1h5.58l-12.2 31.7z" style="line-height:105.99999428%;-inkscape-font-specification:'Liberation Sans';text-align:start"/><path d="M216.95 118.97q-1.2.32-2.46.5-1.24.2-2.88.2-6.33 0-6.33-7.18V91.33h-3.67V87.5h3.86l1.55-7.1h3.5v7.1h5.87v3.84h-5.86v20q0 2.3.73 3.23.75.9 2.6.9.76 0 1.47-.1.73-.12 1.58-.3v3.9z" style="line-height:105.99999428%;-inkscape-font-specification:'Liberation Sans';text-align:start"/><path d="M226.64 92.92q.88-1.6 1.9-2.72 1.03-1.15 2.26-1.88 1.24-.73 2.7-1.05 1.46-.35 3.28-.35 3.05 0 4.98.82 1.96.82 3.08 2.3 1.14 1.47 1.55 3.53.43 2.05.43 4.5v21.13h-5.3V99.1q0-2.02-.27-3.54-.23-1.53-.93-2.52-.7-1.03-2-1.53-1.28-.5-3.34-.5-1.88 0-3.4.66-1.5.67-2.58 1.9-1.06 1.24-1.64 3-.6 1.75-.6 3.95v18.7h-5.26V75.72h5.27v11.3q0 .98-.04 1.95-.03.96-.1 1.78-.02.82-.04 1.4-.03.57-.06.77h.08z" style="line-height:105.99999428%;-inkscape-font-specification:'Liberation Sans';text-align:start"/><path d="M281.6 103.32q0 8.32-3.66 12.4-3.66 4.07-10.63 4.07-3.3 0-5.9-1-2.62-1-4.43-3.06-1.8-2.05-2.76-5.12-.92-3.1-.92-7.3 0-16.4 14.2-16.4 3.7 0 6.36 1.02 2.7 1.03 4.4 3.08 1.72 2.05 2.55 5.12.8 3.08.8 7.18zm-5.53 0q0-3.7-.6-6.1-.54-2.4-1.66-3.83-1.07-1.45-2.65-2-1.6-.6-3.58-.6-2.02 0-3.66.63-1.6.58-2.74 2.05-1.15 1.43-1.76 3.84-.6 2.4-.6 6 0 3.7.66 6.12.64 2.4 1.75 3.84 1.16 1.44 2.68 2.02 1.55.6 3.37.6 2.02 0 3.66-.57 1.65-.58 2.8-2.02 1.14-1.42 1.75-3.86.62-2.43.62-6.12z" style="line-height:105.99999428%;-inkscape-font-specification:'Liberation Sans';text-align:start"/><path d="M308.32 119.2V99.1q0-2.3-.35-3.86-.32-1.56-1.08-2.5-.77-.96-2.03-1.34-1.23-.4-3.08-.4-1.88 0-3.4.66-1.5.65-2.6 1.9-1.04 1.24-1.63 3.08-.58 1.82-.58 4.2v18.36h-5.3V94.27q0-1 0-2.08 0-1.12-.04-2.1-.03-1-.06-1.7t-.06-.9h4.98q.03.15.06.8.03.64.06 1.5.06.8.08 1.7.03.83.03 1.42h.1q.75-1.38 1.66-2.5.92-1.1 2.12-1.86 1.2-.8 2.75-1.2 1.56-.44 3.6-.44 2.64 0 4.55.64 1.9.64 3.13 2 1.23 1.34 1.8 3.48.58 2.1.58 5.04v21.12h-5.3z" style="line-height:105.99999428%;-inkscape-font-specification:'Liberation Sans';text-align:start"/><path d="M371.05 107.57q0 3.13-1.23 5.36-1.23 2.2-3.3 3.6-2.1 1.38-4.85 2.03-2.75.64-5.8.64h-16.75V77.92h15q3.42 0 6.12.6 2.7.54 4.57 1.77 1.88 1.22 2.85 3.13 1 1.87 1 4.5 0 1.74-.5 3.26-.47 1.52-1.47 2.78-.96 1.23-2.46 2.13-1.46.9-3.42 1.33 2.5.3 4.4 1.15 1.92.84 3.2 2.16 1.3 1.32 1.98 3.08.67 1.73.67 3.75zm-8.03-18.96q0-3.33-2.28-4.76-2.3-1.44-6.62-1.44h-9.4v13.07h9.4q2.46 0 4.16-.47 1.7-.5 2.75-1.38 1.05-.9 1.52-2.16.47-1.26.47-2.85zm2.37 18.53q0-1.96-.74-3.34-.7-1.4-2.05-2.27-1.34-.87-3.24-1.28-1.88-.42-4.22-.42H344.7v14.9h10.88q2.14 0 3.93-.36 1.82-.36 3.1-1.23 1.33-.88 2.06-2.35.73-1.47.73-3.67z" style="line-height:105.99999428%;-inkscape-font-specification:'Liberation Sans';text-align:start"/><path d="M378.43 119.2V94.88q0-1-.03-2.02 0-1.05-.03-2.02t-.06-1.82q0-.85-.04-1.52h4.98q.03.67.06 1.55.05.85.08 1.76.06.92.06 1.77.03.82.03 1.4h.12q.54-1.8 1.16-3.13.64-1.35 1.5-2.2.84-.88 2.02-1.3 1.17-.42 2.84-.42.64 0 1.23.1.58.1.9.2v4.82q-.52-.14-1.22-.2-.7-.1-1.6-.1-1.8 0-3.1.83-1.25.82-2.07 2.28-.8 1.44-1.17 3.46-.4 2-.4 4.38v16.52h-5.27z" style="line-height:105.99999428%;-inkscape-font-specification:'Liberation Sans';text-align:start"/><path d="M406.44 119.8q-4.78 0-7.18-2.53-2.4-2.52-2.4-6.92 0-3.13 1.17-5.12 1.2-2.03 3.1-3.17 1.94-1.14 4.4-1.58 2.46-.44 5-.5l7.13-.12v-1.72q0-1.97-.4-3.34-.42-1.38-1.27-2.23-.86-.85-2.15-1.23-1.26-.4-3-.4-1.5 0-2.74.22-1.22.2-2.13.8-.9.55-1.46 1.55-.55.97-.73 2.47l-5.5-.5q.3-1.88 1.1-3.43.83-1.58 2.32-2.72 1.52-1.15 3.77-1.76 2.3-.64 5.5-.64 6 0 9 2.75 3.02 2.72 3.02 7.9v13.66q0 2.35.6 3.55.62 1.17 2.35 1.17.44 0 .88-.06.44-.07.85-.16v3.28q-1 .24-2 .36-.96.1-2.07.1-1.5 0-2.57-.37-1.06-.4-1.73-1.2-.67-.8-1.02-1.98-.36-1.2-.44-2.78h-.18q-.85 1.52-1.87 2.75-1 1.22-2.36 2.1-1.35.85-3.07 1.32-1.7.47-3.93.47zm1.2-3.97q2.52 0 4.4-.9 1.9-.94 3.13-2.38 1.26-1.44 1.88-3.13.6-1.7.6-3.26v-2.6l-5.76.1q-1.94.04-3.7.3-1.73.24-3.05.97-1.32.74-2.1 2.05-.77 1.32-.77 3.46 0 2.58 1.38 3.98 1.4 1.4 3.98 1.4z" style="line-height:105.99999428%;-inkscape-font-specification:'Liberation Sans';text-align:start"/><path d="M455.54 110.44q0 2.23-.88 3.98-.85 1.73-2.5 2.93-1.63 1.18-4.03 1.82-2.37.62-5.45.62-2.75 0-4.98-.45-2.2-.4-3.87-1.35-1.67-.94-2.8-2.46-1.12-1.55-1.65-3.78l4.66-.9q.67 2.54 2.78 3.74 2.1 1.17 5.86 1.17 1.7 0 3.1-.23 1.44-.24 2.47-.8 1.02-.58 1.58-1.52.58-.96.58-2.37 0-1.43-.66-2.34-.67-.93-1.87-1.55-1.2-.6-2.93-1.05-1.7-.47-3.75-1.03-1.92-.5-3.8-1.1-1.87-.62-3.4-1.62-1.5-1.03-2.42-2.52-.94-1.5-.94-3.75 0-4.34 3.07-6.6 3.12-2.28 9.04-2.28 5.24 0 8.32 1.85 3.1 1.84 3.92 5.92l-4.74.58q-.27-1.23-.97-2.05-.7-.85-1.7-1.35-1-.52-2.25-.73-1.23-.23-2.58-.23-3.58 0-5.28 1.07-1.7 1.1-1.7 3.28 0 1.3.62 2.14.65.8 1.76 1.4 1.14.55 2.72 1 1.6.4 3.5.87 1.25.32 2.57.7 1.32.36 2.55.88 1.26.5 2.34 1.2 1.1.68 1.93 1.65.82.96 1.3 2.25.5 1.3.5 3z" style="line-height:105.99999428%;-inkscape-font-specification:'Liberation Sans';text-align:start"/><path d="M461.72 80.76v-5.04H467v5.04h-5.28zm0 38.44V87.5H467v31.7h-5.28z" style="line-height:105.99999428%;-inkscape-font-specification:'Liberation Sans';text-align:start"/><path d="M475.1 119.2V75.72h5.28v43.48h-5.27z" style="line-height:105.99999428%;-inkscape-font-specification:'Liberation Sans';text-align:start"/></g></g></svg>