<?xml version="1.0" encoding="UTF-8" standalone="no"?>
<!-- Created with Inkscape (http://www.inkscape.org/) -->

<svg
   xmlns:dc="http://purl.org/dc/elements/1.1/"
   xmlns:cc="http://creativecommons.org/ns#"
   xmlns:rdf="http://www.w3.org/1999/02/22-rdf-syntax-ns#"
   xmlns:svg="http://www.w3.org/2000/svg"
   xmlns="http://www.w3.org/2000/svg"
   xmlns:xlink="http://www.w3.org/1999/xlink"
   xmlns:sodipodi="http://sodipodi.sourceforge.net/DTD/sodipodi-0.dtd"
   xmlns:inkscape="http://www.inkscape.org/namespaces/inkscape"
   version="1.0"
   id="svg2"
   sodipodi:version="0.32"
   inkscape:version="0.91 r13725"
   sodipodi:docname="logo.svg"
   width="388.84pt"
   height="115.02pt">
  <metadata
     id="metadata371">
    <rdf:RDF>
      <cc:Work
         rdf:about="">
        <dc:format>image/svg+xml</dc:format>
        <dc:type
           rdf:resource="http://purl.org/dc/dcmitype/StillImage" />
      </cc:Work>
    </rdf:RDF>
  </metadata>
  <sodipodi:namedview
     inkscape:window-height="1056"
     inkscape:window-width="1920"
     inkscape:pageshadow="2"
     inkscape:pageopacity="0.0"
     guidetolerance="10.0"
     gridtolerance="10.0"
     objecttolerance="10.0"
     borderopacity="1.0"
     bordercolor="#666666"
     pagecolor="#ffffff"
     id="base"
     inkscape:zoom="1.5175673"
     inkscape:cx="121.07375"
     inkscape:cy="130.29627"
     inkscape:window-x="1366"
     inkscape:window-y="24"
     inkscape:current-layer="svg2"
     width="210mm"
     height="40mm"
     units="mm"
     showgrid="false"
     inkscape:window-maximized="1" />
  <defs
     id="defs4">
    <linearGradient
       id="linearGradient2795">
      <stop
         style="stop-color:#b8b8b8;stop-opacity:0.49803922;"
         offset="0"
         id="stop2797" />
      <stop
         style="stop-color:#7f7f7f;stop-opacity:0;"
         offset="1"
         id="stop2799" />
    </linearGradient>
    <linearGradient
       id="linearGradient2787">
      <stop
         style="stop-color:#7f7f7f;stop-opacity:0.5;"
         offset="0"
         id="stop2789" />
      <stop
         style="stop-color:#7f7f7f;stop-opacity:0;"
         offset="1"
         id="stop2791" />
    </linearGradient>
    <linearGradient
       id="linearGradient3676">
      <stop
         style="stop-color:#b2b2b2;stop-opacity:0.5;"
         offset="0"
         id="stop3678" />
      <stop
         style="stop-color:#b3b3b3;stop-opacity:0;"
         offset="1"
         id="stop3680" />
    </linearGradient>
    <linearGradient
       id="linearGradient3236">
      <stop
         style="stop-color:#f4f4f4;stop-opacity:1"
         offset="0"
         id="stop3244" />
      <stop
         style="stop-color:white;stop-opacity:1"
         offset="1"
         id="stop3240" />
    </linearGradient>
    <linearGradient
       id="linearGradient4671">
      <stop
         style="stop-color:#ffd43b;stop-opacity:1;"
         offset="0"
         id="stop4673" />
      <stop
         style="stop-color:#ffe873;stop-opacity:1"
         offset="1"
         id="stop4675" />
    </linearGradient>
    <linearGradient
       id="linearGradient4689">
      <stop
         style="stop-color:#5a9fd4;stop-opacity:1;"
         offset="0"
         id="stop4691" />
      <stop
         style="stop-color:#306998;stop-opacity:1;"
         offset="1"
         id="stop4693" />
    </linearGradient>
    <linearGradient
       x1="224.23996"
       y1="144.75717"
       x2="-65.308502"
       y2="144.75717"
       id="linearGradient2987"
       xlink:href="#linearGradient4671"
       gradientUnits="userSpaceOnUse"
       gradientTransform="translate(100.2702,99.61116)" />
    <linearGradient
       x1="172.94208"
       y1="77.475983"
       x2="26.670298"
       y2="76.313133"
       id="linearGradient2990"
       xlink:href="#linearGradient4689"
       gradientUnits="userSpaceOnUse"
       gradientTransform="translate(100.2702,99.61116)" />
    <linearGradient
       inkscape:collect="always"
       xlink:href="#linearGradient4689"
       id="linearGradient2587"
       gradientUnits="userSpaceOnUse"
       gradientTransform="translate(100.2702,99.61116)"
       x1="172.94208"
       y1="77.475983"
       x2="26.670298"
       y2="76.313133" />
    <linearGradient
       inkscape:collect="always"
       xlink:href="#linearGradient4671"
       id="linearGradient2589"
       gradientUnits="userSpaceOnUse"
       gradientTransform="translate(100.2702,99.61116)"
       x1="224.23996"
       y1="144.75717"
       x2="-65.308502"
       y2="144.75717" />
    <linearGradient
       inkscape:collect="always"
       xlink:href="#linearGradient4689"
       id="linearGradient2248"
       gradientUnits="userSpaceOnUse"
       gradientTransform="translate(100.2702,99.61116)"
       x1="172.94208"
       y1="77.475983"
       x2="26.670298"
       y2="76.313133" />
    <linearGradient
       inkscape:collect="always"
       xlink:href="#linearGradient4671"
       id="linearGradient2250"
       gradientUnits="userSpaceOnUse"
       gradientTransform="translate(100.2702,99.61116)"
       x1="224.23996"
       y1="144.75717"
       x2="-65.308502"
       y2="144.75717" />
    <linearGradient
       inkscape:collect="always"
       xlink:href="#linearGradient4671"
       id="linearGradient2255"
       gradientUnits="userSpaceOnUse"
       gradientTransform="matrix(0.562541,0,0,0.567972,-11.5974,-7.60954)"
       x1="224.23996"
       y1="144.75717"
       x2="-65.308502"
       y2="144.75717" />
    <linearGradient
       inkscape:collect="always"
       xlink:href="#linearGradient4689"
       id="linearGradient2258"
       gradientUnits="userSpaceOnUse"
       gradientTransform="matrix(0.562541,0,0,0.567972,-11.5974,-7.60954)"
       x1="172.94208"
       y1="76.176224"
       x2="26.670298"
       y2="76.313133" />
    <radialGradient
       inkscape:collect="always"
       xlink:href="#linearGradient2795"
       id="radialGradient2801"
       cx="61.518883"
       cy="132.28575"
       fx="61.518883"
       fy="132.28575"
       r="29.036913"
       gradientTransform="matrix(1,0,0,0.177966,0,108.7434)"
       gradientUnits="userSpaceOnUse" />
    <linearGradient
       inkscape:collect="always"
       xlink:href="#linearGradient4671"
       id="linearGradient1475"
       gradientUnits="userSpaceOnUse"
       gradientTransform="matrix(0.562541,0,0,0.567972,-9.399749,-5.305317)"
       x1="150.96111"
       y1="192.35176"
       x2="112.03144"
       y2="137.27299" />
    <linearGradient
       inkscape:collect="always"
       xlink:href="#linearGradient4689"
       id="linearGradient1478"
       gradientUnits="userSpaceOnUse"
       gradientTransform="matrix(0.562541,0,0,0.567972,-9.399749,-5.305317)"
       x1="26.648937"
       y1="20.603781"
       x2="135.66525"
       y2="114.39767" />
    <radialGradient
       inkscape:collect="always"
       xlink:href="#linearGradient2795"
       id="radialGradient1480"
       gradientUnits="userSpaceOnUse"
       gradientTransform="matrix(2.382716e-8,-0.296405,1.43676,4.683673e-7,-128.544,150.5202)"
       cx="61.518883"
       cy="132.28575"
       fx="61.518883"
       fy="132.28575"
       r="29.036913" />
  </defs>
  <g
     id="g4198"
     transform="translate(-2,-1.843605)">
    <g
       id="g4190">
      <g
         id="g4186">
        <ellipse
           style="opacity:1;fill:#ffffff;fill-opacity:1;fill-rule:evenodd;stroke:none;stroke-width:300;stroke-miterlimit:4;stroke-dasharray:none"
           id="ellipse4180"
           cx="45.721107"
           cy="19.716444"
           rx="6.8144832"
           ry="6.7562399" />
        <path
           id="path1948"
           d="m 60.510156,6.3979729 c -4.583653,0.021298 -8.960939,0.4122177 -12.8125,1.09375 C 36.35144,9.4962267 34.291407,13.691825 34.291406,21.429223 l 0,10.21875 26.8125,0 0,3.40625 -26.8125,0 -10.0625,0 c -7.792459,0 -14.6157592,4.683717 -16.7500002,13.59375 -2.46182,10.212966 -2.5710151,16.586023 0,27.25 1.9059283,7.937852 6.4575432,13.593748 14.2500002,13.59375 l 9.21875,0 0,-12.25 c 0,-8.849902 7.657144,-16.656248 16.75,-16.65625 l 26.78125,0 c 7.454951,0 13.406253,-6.138164 13.40625,-13.625 l 0,-25.53125 c 0,-7.266339 -6.12998,-12.7247775 -13.40625,-13.9375001 -4.605987,-0.7667253 -9.385097,-1.1150483 -13.96875,-1.09375 z m -14.5,8.2187501 c 2.769547,0 5.03125,2.298646 5.03125,5.125 -2e-6,2.816336 -2.261703,5.09375 -5.03125,5.09375 -2.779476,-1e-6 -5.03125,-2.277415 -5.03125,-5.09375 -1e-6,-2.826353 2.251774,-5.125 5.03125,-5.125 z"
           style="fill:url(#linearGradient1478);fill-opacity:1"
           inkscape:connector-curvature="0" />
      </g>
      <g
         id="g4182">
        <ellipse
           ry="6.7562399"
           rx="6.8144832"
           cy="104.75188"
           cx="76.124184"
           id="path4172"
           style="opacity:1;fill:#ffffff;fill-opacity:1;fill-rule:evenodd;stroke:none;stroke-width:300;stroke-miterlimit:4;stroke-dasharray:none" />
        <path
           id="path1950"
           d="m 91.228906,35.054223 0,11.90625 c 0,9.230755 -7.825895,16.999999 -16.75,17 l -26.78125,0 c -7.335833,0 -13.406249,6.278483 -13.40625,13.625 l 0,25.531247 c 0,7.26634 6.318588,11.54032 13.40625,13.625 8.487331,2.49561 16.626237,2.94663 26.78125,0 6.750155,-1.95439 13.406253,-5.88761 13.40625,-13.625 l 0,-10.218747 -26.78125,0 0,-3.40625 26.78125,0 13.406254,0 c 7.79246,0 10.69625,-5.435408 13.40624,-13.59375 2.79933,-8.398886 2.68022,-16.475776 0,-27.25 -1.92578,-7.757441 -5.60387,-13.59375 -13.40624,-13.59375 l -10.062504,0 z m -15.0625,64.65625 c 2.779478,3e-6 5.03125,2.277417 5.03125,5.093747 -2e-6,2.82635 -2.251775,5.125 -5.03125,5.125 -2.76955,0 -5.03125,-2.29865 -5.03125,-5.125 2e-6,-2.81633 2.261697,-5.093747 5.03125,-5.093747 z"
           style="fill:url(#linearGradient1475);fill-opacity:1"
           inkscape:connector-curvature="0" />
      </g>
    </g>
    <ellipse
       transform="matrix(0.73406,0,0,0.809524,16.24958,27.00935)"
       id="path1894"
       style="opacity:0.44382025;fill:url(#radialGradient1480);fill-opacity:1;fill-rule:nonzero;stroke:none;stroke-width:20;stroke-miterlimit:4;stroke-dasharray:none;stroke-opacity:1"
       cx="61.518883"
       cy="132.28575"
       rx="48.948284"
       ry="8.6066771" />
  </g>
  <g
     id="g4243"
     transform="translate(6,0)">
    <path
       d="m 159.39022,55.60019 -4.7168,-12.07031 -18.80859,0 -4.74609,12.07031 -5.80079,0 16.84571,-41.2793 6.35742,0 16.58203,41.2793 -5.71289,0 z M 147.70077,25.5416 q -0.46875,-1.17188 -0.90821,-2.37305 -0.41015,-1.20117 -0.73242,-2.16797 -0.32226,-0.99609 -0.55664,-1.64062 -0.20508,-0.67383 -0.23437,-0.82032 -0.0586,0.14649 -0.26368,0.82032 -0.20507,0.67383 -0.55664,1.66992 -0.32226,0.99609 -0.76171,2.19726 -0.41016,1.20118 -0.84961,2.37305 l -5.27344,13.56445 15.43945,0 -5.30273,-13.62304 z"
       id="path4177"
       style="font-style:normal;font-variant:normal;font-weight:normal;font-stretch:normal;font-size:medium;line-height:105.99999428%;font-family:'Liberation Sans';-inkscape-font-specification:'Liberation Sans';text-align:start;letter-spacing:0px;word-spacing:0px;text-anchor:start;fill:#cccccc;fill-opacity:1;stroke:none;stroke-width:1px;stroke-linecap:butt;stroke-linejoin:miter;stroke-opacity:1"
       inkscape:connector-curvature="0" />
    <path
       d="m 193.11092,46.84043 q 0,2.22656 -0.8789,3.98437 -0.84961,1.72852 -2.49024,2.92969 -1.64062,1.17187 -4.04297,1.8164 -2.37304,0.61524 -5.44921,0.61524 -2.75391,0 -4.98047,-0.43945 -2.19727,-0.41016 -3.86719,-1.34766 -1.66992,-0.9375 -2.8125,-2.46094 -1.11328,-1.55273 -1.64063,-3.77929 l 4.65821,-0.90821 q 0.67383,2.54883 2.7832,3.75 2.10938,1.17188 5.85938,1.17188 1.69921,0 3.10546,-0.23438 1.43555,-0.23437 2.46094,-0.79101 1.02539,-0.58594 1.58203,-1.52344 0.58594,-0.9668 0.58594,-2.37305 0,-1.43554 -0.67383,-2.34375 -0.67383,-0.9375 -1.875,-1.55273 -1.20117,-0.61524 -2.92968,-1.05469 -1.69922,-0.46875 -3.75,-1.02539 -1.9043,-0.49805 -3.7793,-1.11328 -1.875,-0.61524 -3.39844,-1.61133 -1.49414,-1.02539 -2.43164,-2.51953 -0.9375,-1.49414 -0.9375,-3.75 0,-4.33594 3.07617,-6.5918 3.10547,-2.28515 9.02344,-2.28515 5.24414,0 8.32031,1.8457 3.10547,1.8457 3.92578,5.91797 l -4.74609,0.58594 q -0.26367,-1.23047 -0.9668,-2.05079 -0.70312,-0.84961 -1.69922,-1.34765 -0.99609,-0.52735 -2.25586,-0.73242 -1.23046,-0.23438 -2.57812,-0.23438 -3.57422,0 -5.27344,1.08399 -1.69922,1.08398 -1.69922,3.28125 0,1.28906 0.61524,2.13867 0.64453,0.82031 1.75781,1.40625 1.14258,0.55664 2.72461,0.99609 1.58203,0.41016 3.48633,0.87891 1.25976,0.32226 2.57812,0.70312 1.31836,0.35156 2.54883,0.87891 1.25977,0.49805 2.34375,1.20117 1.11328,0.67383 1.93359,1.64063 0.82032,0.96679 1.28907,2.25585 0.49804,1.28907 0.49804,2.98829 z"
       id="path4179"
       style="font-style:normal;font-variant:normal;font-weight:normal;font-stretch:normal;font-size:medium;line-height:105.99999428%;font-family:'Liberation Sans';-inkscape-font-specification:'Liberation Sans';text-align:start;letter-spacing:0px;word-spacing:0px;text-anchor:start;fill:#cccccc;fill-opacity:1;stroke:none;stroke-width:1px;stroke-linecap:butt;stroke-linejoin:miter;stroke-opacity:1"
       inkscape:connector-curvature="0" />
    <path
       d="m 223.11092,46.84043 q 0,2.22656 -0.8789,3.98437 -0.84961,1.72852 -2.49024,2.92969 -1.64062,1.17187 -4.04297,1.8164 -2.37304,0.61524 -5.44921,0.61524 -2.75391,0 -4.98047,-0.43945 -2.19727,-0.41016 -3.86719,-1.34766 -1.66992,-0.9375 -2.8125,-2.46094 -1.11328,-1.55273 -1.64063,-3.77929 l 4.65821,-0.90821 q 0.67383,2.54883 2.7832,3.75 2.10938,1.17188 5.85938,1.17188 1.69921,0 3.10546,-0.23438 1.43555,-0.23437 2.46094,-0.79101 1.02539,-0.58594 1.58203,-1.52344 0.58594,-0.9668 0.58594,-2.37305 0,-1.43554 -0.67383,-2.34375 -0.67383,-0.9375 -1.875,-1.55273 -1.20117,-0.61524 -2.92969,-1.05469 -1.69921,-0.46875 -3.75,-1.02539 -1.90429,-0.49805 -3.77929,-1.11328 -1.875,-0.61524 -3.39844,-1.61133 -1.49414,-1.02539 -2.43164,-2.51953 -0.9375,-1.49414 -0.9375,-3.75 0,-4.33594 3.07617,-6.5918 3.10547,-2.28515 9.02344,-2.28515 5.24414,0 8.32031,1.8457 3.10547,1.8457 3.92578,5.91797 l -4.74609,0.58594 q -0.26367,-1.23047 -0.9668,-2.05079 -0.70312,-0.84961 -1.69922,-1.34765 -0.99609,-0.52735 -2.25586,-0.73242 -1.23046,-0.23438 -2.57812,-0.23438 -3.57422,0 -5.27344,1.08399 -1.69922,1.08398 -1.69922,3.28125 0,1.28906 0.61524,2.13867 0.64453,0.82031 1.75781,1.40625 1.14258,0.55664 2.72461,0.99609 1.58203,0.41016 3.48633,0.87891 1.25976,0.32226 2.57812,0.70312 1.31836,0.35156 2.54883,0.87891 1.25977,0.49805 2.34375,1.20117 1.11328,0.67383 1.93359,1.64063 0.82032,0.96679 1.28907,2.25585 0.49804,1.28907 0.49804,2.98829 z"
       id="path4181"
       style="font-style:normal;font-variant:normal;font-weight:normal;font-stretch:normal;font-size:medium;line-height:105.99999428%;font-family:'Liberation Sans';-inkscape-font-specification:'Liberation Sans';text-align:start;letter-spacing:0px;word-spacing:0px;text-anchor:start;fill:#cccccc;fill-opacity:1;stroke:none;stroke-width:1px;stroke-linecap:butt;stroke-linejoin:miter;stroke-opacity:1"
       inkscape:connector-curvature="0" />
    <path
       d="m 256.1285,39.72129 q 0,8.32031 -3.66211,12.39257 -3.66211,4.07227 -10.63476,4.07227 -3.31055,0 -5.91797,-0.99609 -2.60742,-0.9961 -4.42383,-3.04688 -1.78711,-2.05078 -2.75391,-5.12695 -0.9375,-3.10547 -0.9375,-7.29492 0,-16.40625 14.20899,-16.40625 3.6914,0 6.35742,1.02539 2.69531,1.02539 4.39453,3.07617 1.72852,2.05078 2.54883,5.12695 0.82031,3.07617 0.82031,7.17774 z m -5.53711,0 q 0,-3.69141 -0.58594,-6.09375 -0.55664,-2.40235 -1.66992,-3.8379 -1.08398,-1.43554 -2.66601,-1.99218 -1.58203,-0.58594 -3.57422,-0.58594 -2.02149,0 -3.66211,0.61523 -1.61133,0.58594 -2.75391,2.05079 -1.14258,1.43554 -1.75781,3.83789 -0.58594,2.40234 -0.58594,6.00586 0,3.6914 0.64453,6.12304 0.64454,2.40235 1.75782,3.83789 1.14257,1.43555 2.66601,2.02149 1.55274,0.58593 3.36914,0.58593 2.02149,0 3.66211,-0.55664 1.64063,-0.58593 2.78321,-2.02148 1.14257,-1.43555 1.75781,-3.86719 0.61523,-2.43164 0.61523,-6.12304 z"
       id="path4183"
       style="font-style:normal;font-variant:normal;font-weight:normal;font-stretch:normal;font-size:medium;line-height:105.99999428%;font-family:'Liberation Sans';-inkscape-font-specification:'Liberation Sans';text-align:start;letter-spacing:0px;word-spacing:0px;text-anchor:start;fill:#cccccc;fill-opacity:1;stroke:none;stroke-width:1px;stroke-linecap:butt;stroke-linejoin:miter;stroke-opacity:1"
       inkscape:connector-curvature="0" />
    <path
       d="m 266.73397,39.6041 q 0,2.72461 0.38086,5.00976 0.41016,2.28516 1.34766,3.95508 0.9375,1.64063 2.46093,2.54883 1.55274,0.9082 3.8086,0.9082 2.8125,0 4.6875,-1.52343 1.90429,-1.52344 2.34375,-4.6875 l 5.33203,0.35156 q -0.26367,1.96289 -1.14258,3.77929 -0.87891,1.81641 -2.40234,3.19336 -1.49414,1.37696 -3.66211,2.22657 -2.16797,0.82031 -5.00977,0.82031 -3.7207,0 -6.32812,-1.25977 -2.60743,-1.25976 -4.24805,-3.45703 -1.61133,-2.22656 -2.34375,-5.21484 -0.73242,-3.01758 -0.73242,-6.5332 0,-3.19336 0.52734,-5.625 0.52735,-2.46094 1.46485,-4.27735 0.96679,-1.8457 2.25585,-3.07617 1.28907,-1.25977 2.78321,-1.99219 1.52344,-0.76172 3.19336,-1.08398 1.66992,-0.35156 3.36914,-0.35156 2.66601,0 4.74609,0.73242 2.08008,0.73242 3.57422,2.02148 1.52344,1.25977 2.46094,2.98828 0.9375,1.72852 1.31836,3.72071 l -5.41992,0.41015 q -0.41016,-2.63672 -2.08008,-4.18945 -1.66992,-1.55274 -4.7461,-1.55274 -2.25586,0 -3.77929,0.76172 -1.49414,0.73243 -2.43164,2.25586 -0.9375,1.49414 -1.34766,3.7793 -0.38086,2.28516 -0.38086,5.36133 z"
       id="path4185"
       style="font-style:normal;font-variant:normal;font-weight:normal;font-stretch:normal;font-size:medium;line-height:105.99999428%;font-family:'Liberation Sans';-inkscape-font-specification:'Liberation Sans';text-align:start;letter-spacing:0px;word-spacing:0px;text-anchor:start;fill:#cccccc;fill-opacity:1;stroke:none;stroke-width:1px;stroke-linecap:butt;stroke-linejoin:miter;stroke-opacity:1"
       inkscape:connector-curvature="0" />
    <path
       d="m 292.691,17.16269 0,-5.03906 5.27344,0 0,5.03906 -5.27344,0 z m 0,38.4375 0,-31.69922 5.27344,0 0,31.69922 -5.27344,0 z"
       id="path4187"
       style="font-style:normal;font-variant:normal;font-weight:normal;font-stretch:normal;font-size:medium;line-height:105.99999428%;font-family:'Liberation Sans';-inkscape-font-specification:'Liberation Sans';text-align:start;letter-spacing:0px;word-spacing:0px;text-anchor:start;fill:#cccccc;fill-opacity:1;stroke:none;stroke-width:1px;stroke-linecap:butt;stroke-linejoin:miter;stroke-opacity:1"
       inkscape:connector-curvature="0" />
    <path
       d="m 314.16561,56.18613 q -4.77539,0 -7.17773,-2.51953 -2.40235,-2.51953 -2.40235,-6.91406 0,-3.13477 1.17188,-5.12696 1.20117,-2.02148 3.10547,-3.16406 1.93359,-1.14258 4.39453,-1.58203 2.46094,-0.43945 5.00976,-0.49805 l 7.11914,-0.11719 0,-1.72851 q 0,-1.96289 -0.41015,-3.33985 -0.41016,-1.37695 -1.25977,-2.22656 -0.84961,-0.84961 -2.13867,-1.23047 -1.25977,-0.41015 -2.98828,-0.41015 -1.52344,0 -2.75391,0.23437 -1.23047,0.20508 -2.13867,0.79102 -0.9082,0.55664 -1.46484,1.55273 -0.55664,0.9668 -0.73242,2.46094 l -5.50782,-0.49805 q 0.29297,-1.875 1.11328,-3.42773 0.82032,-1.58203 2.31446,-2.72461 1.52343,-1.14258 3.77929,-1.75781 2.28516,-0.64453 5.50782,-0.64453 5.97656,0 8.99414,2.7539 3.01758,2.72461 3.01758,7.91016 l 0,13.65234 q 0,2.34375 0.61523,3.54492 0.61523,1.17188 2.34375,1.17188 0.43945,0 0.87891,-0.0586 0.43945,-0.0586 0.84961,-0.14648 l 0,3.28125 q -0.9961,0.23438 -1.99219,0.35156 -0.9668,0.11719 -2.08008,0.11719 -1.49414,0 -2.57813,-0.38086 -1.05468,-0.41016 -1.72851,-1.20117 -0.67383,-0.82031 -1.02539,-1.99219 -0.35156,-1.20117 -0.43945,-2.7832 l -0.17579,0 q -0.84961,1.52344 -1.875,2.7539 -0.99609,1.23047 -2.34375,2.10938 -1.34765,0.84961 -3.07617,1.31836 -1.69922,0.46875 -3.92578,0.46875 z m 1.20117,-3.95508 q 2.51953,0 4.39453,-0.9082 1.9043,-0.9375 3.13477,-2.37305 1.25977,-1.43555 1.875,-3.13476 0.61523,-1.69922 0.61523,-3.25196 l 0,-2.60742 -5.77148,0.11719 q -1.93359,0.0293 -3.69141,0.29297 -1.72851,0.23437 -3.04687,0.96679 -1.31836,0.73243 -2.10938,2.05078 -0.76172,1.31836 -0.76172,3.45704 0,2.57812 1.37696,3.98437 1.40625,1.40625 3.98437,1.40625 z"
       id="path4189"
       style="font-style:normal;font-variant:normal;font-weight:normal;font-stretch:normal;font-size:medium;line-height:105.99999428%;font-family:'Liberation Sans';-inkscape-font-specification:'Liberation Sans';text-align:start;letter-spacing:0px;word-spacing:0px;text-anchor:start;fill:#cccccc;fill-opacity:1;stroke:none;stroke-width:1px;stroke-linecap:butt;stroke-linejoin:miter;stroke-opacity:1"
       inkscape:connector-curvature="0" />
    <path
       d="m 343.49178,39.6041 q 0,2.72461 0.38086,5.00976 0.41016,2.28516 1.34766,3.95508 0.9375,1.64063 2.46094,2.54883 1.55273,0.9082 3.80859,0.9082 2.8125,0 4.6875,-1.52343 1.9043,-1.52344 2.34375,-4.6875 l 5.33203,0.35156 q -0.26367,1.96289 -1.14258,3.77929 -0.8789,1.81641 -2.40234,3.19336 -1.49414,1.37696 -3.66211,2.22657 -2.16797,0.82031 -5.00977,0.82031 -3.7207,0 -6.32812,-1.25977 -2.60742,-1.25976 -4.24805,-3.45703 -1.61133,-2.22656 -2.34375,-5.21484 -0.73242,-3.01758 -0.73242,-6.5332 0,-3.19336 0.52734,-5.625 0.52735,-2.46094 1.46485,-4.27735 0.96679,-1.8457 2.25586,-3.07617 1.28906,-1.25977 2.7832,-1.99219 1.52344,-0.76172 3.19336,-1.08398 1.66992,-0.35156 3.36914,-0.35156 2.66602,0 4.74609,0.73242 2.08008,0.73242 3.57422,2.02148 1.52344,1.25977 2.46094,2.98828 0.9375,1.72852 1.31836,3.72071 l -5.41992,0.41015 q -0.41016,-2.63672 -2.08008,-4.18945 -1.66992,-1.55274 -4.74609,-1.55274 -2.25586,0 -3.7793,0.76172 -1.49414,0.73243 -2.43164,2.25586 -0.9375,1.49414 -1.34766,3.7793 -0.38086,2.28516 -0.38086,5.36133 z m 13.94532,23.4082 q 0,1.20117 -0.43946,2.16797 -0.43945,0.99609 -1.40625,1.69922 -0.9375,0.70312 -2.46094,1.05469 -1.52343,0.38086 -3.7207,0.38086 -0.58594,0 -1.25976,-0.0293 -0.64454,0 -1.37696,-0.0879 l 0,-2.8711 q 1.43555,0.17579 2.51953,0.17579 1.20118,0 2.02149,-0.17579 0.82031,-0.17578 1.31836,-0.49804 0.52734,-0.29297 0.73242,-0.73242 0.23437,-0.43946 0.23437,-0.9668 0,-1.08399 -0.9082,-1.66992 -0.8789,-0.58594 -2.98828,-0.58594 -0.41016,0 -0.84961,0 -0.41016,0 -0.82031,0.0586 l 1.9043,-5.33203 3.13476,0 -1.14258,2.92969 q 2.75391,0.0879 4.13086,1.25976 1.37696,1.20118 1.37696,3.22266 z"
       id="path4191"
       style="font-style:normal;font-variant:normal;font-weight:normal;font-stretch:normal;font-size:medium;line-height:105.99999428%;font-family:'Liberation Sans';-inkscape-font-specification:'Liberation Sans';text-align:start;letter-spacing:0px;word-spacing:0px;text-anchor:start;fill:#cccccc;fill-opacity:1;stroke:none;stroke-width:1px;stroke-linecap:butt;stroke-linejoin:miter;stroke-opacity:1"
       inkscape:connector-curvature="0" />
    <path
       d="m 377.56405,56.18613 q -4.77539,0 -7.17774,-2.51953 -2.40234,-2.51953 -2.40234,-6.91406 0,-3.13477 1.17188,-5.12696 1.20117,-2.02148 3.10546,-3.16406 1.9336,-1.14258 4.39454,-1.58203 2.46093,-0.43945 5.00976,-0.49805 l 7.11914,-0.11719 0,-1.72851 q 0,-1.96289 -0.41015,-3.33985 -0.41016,-1.37695 -1.25977,-2.22656 -0.84961,-0.84961 -2.13867,-1.23047 -1.25977,-0.41015 -2.98828,-0.41015 -1.52344,0 -2.75391,0.23437 -1.23047,0.20508 -2.13867,0.79102 -0.9082,0.55664 -1.46485,1.55273 -0.55664,0.9668 -0.73242,2.46094 l -5.50781,-0.49805 q 0.29297,-1.875 1.11328,-3.42773 0.82031,-1.58203 2.31445,-2.72461 1.52344,-1.14258 3.7793,-1.75781 2.28516,-0.64453 5.50781,-0.64453 5.97657,0 8.99414,2.7539 3.01758,2.72461 3.01758,7.91016 l 0,13.65234 q 0,2.34375 0.61524,3.54492 0.61523,1.17188 2.34375,1.17188 0.43945,0 0.8789,-0.0586 0.43946,-0.0586 0.84961,-0.14648 l 0,3.28125 q -0.99609,0.23438 -1.99218,0.35156 -0.9668,0.11719 -2.08008,0.11719 -1.49414,0 -2.57813,-0.38086 -1.05469,-0.41016 -1.72851,-1.20117 -0.67383,-0.82031 -1.02539,-1.99219 -0.35157,-1.20117 -0.43946,-2.7832 l -0.17578,0 q -0.84961,1.52344 -1.875,2.7539 -0.99609,1.23047 -2.34375,2.10938 -1.34765,0.84961 -3.07617,1.31836 -1.69922,0.46875 -3.92578,0.46875 z m 1.20117,-3.95508 q 2.51953,0 4.39453,-0.9082 1.9043,-0.9375 3.13477,-2.37305 1.25976,-1.43555 1.875,-3.13476 0.61523,-1.69922 0.61523,-3.25196 l 0,-2.60742 -5.77148,0.11719 q -1.9336,0.0293 -3.69141,0.29297 -1.72851,0.23437 -3.04687,0.96679 -1.31836,0.73243 -2.10938,2.05078 -0.76172,1.31836 -0.76172,3.45704 0,2.57812 1.37696,3.98437 1.40625,1.40625 3.98437,1.40625 z m 8.26172,-31.81641 q -1.23047,0 -2.46094,-0.52734 -1.23047,-0.55664 -2.37305,-1.20117 -1.14257,-0.67383 -2.19726,-1.20117 -1.02539,-0.55664 -1.93359,-0.55664 -1.61133,0 -2.40235,0.9082 -0.79101,0.9082 -1.05469,2.57812 l -2.66601,0 q 0.14648,-1.31835 0.43945,-2.69531 0.29297,-1.40625 0.9375,-2.54883 0.67383,-1.14257 1.75781,-1.875 1.08399,-0.73242 2.8125,-0.73242 1.28907,0 2.51954,0.55664 1.23046,0.52735 2.37304,1.20117 1.14258,0.64454 2.13867,1.20118 1.02539,0.52734 1.9043,0.52734 1.58203,0 2.37305,-0.9082 0.82031,-0.9375 1.05469,-2.57813 l 2.69531,0 q -0.14649,1.28906 -0.43946,2.69531 -0.29296,1.37696 -0.9375,2.51954 -0.61523,1.14257 -1.69921,1.90429 -1.08399,0.73242 -2.8418,0.73242 z"
       id="path4193"
       style="font-style:normal;font-variant:normal;font-weight:normal;font-stretch:normal;font-size:medium;line-height:105.99999428%;font-family:'Liberation Sans';-inkscape-font-specification:'Liberation Sans';text-align:start;letter-spacing:0px;word-spacing:0px;text-anchor:start;fill:#cccccc;fill-opacity:1;stroke:none;stroke-width:1px;stroke-linecap:butt;stroke-linejoin:miter;stroke-opacity:1"
       inkscape:connector-curvature="0" />
    <path
       d="m 429.68319,39.72129 q 0,8.32031 -3.66211,12.39257 -3.66211,4.07227 -10.63477,4.07227 -3.31054,0 -5.91796,-0.99609 -2.60743,-0.9961 -4.42383,-3.04688 -1.78711,-2.05078 -2.75391,-5.12695 -0.9375,-3.10547 -0.9375,-7.29492 0,-16.40625 14.20899,-16.40625 3.6914,0 6.35742,1.02539 2.69531,1.02539 4.39453,3.07617 1.72851,2.05078 2.54883,5.12695 0.82031,3.07617 0.82031,7.17774 z m -5.53711,0 q 0,-3.69141 -0.58594,-6.09375 -0.55664,-2.40235 -1.66992,-3.8379 -1.08398,-1.43554 -2.66602,-1.99218 -1.58203,-0.58594 -3.57421,-0.58594 -2.02149,0 -3.66211,0.61523 -1.61133,0.58594 -2.75391,2.05079 -1.14258,1.43554 -1.75781,3.83789 -0.58594,2.40234 -0.58594,6.00586 0,3.6914 0.64453,6.12304 0.64453,2.40235 1.75781,3.83789 1.14258,1.43555 2.66602,2.02149 1.55273,0.58593 3.36914,0.58593 2.02148,0 3.66211,-0.55664 1.64062,-0.58593 2.7832,-2.02148 1.14258,-1.43555 1.75782,-3.86719 0.61523,-2.43164 0.61523,-6.12304 z"
       id="path4195"
       style="font-style:normal;font-variant:normal;font-weight:normal;font-stretch:normal;font-size:medium;line-height:105.99999428%;font-family:'Liberation Sans';-inkscape-font-specification:'Liberation Sans';text-align:start;letter-spacing:0px;word-spacing:0px;text-anchor:start;fill:#cccccc;fill-opacity:1;stroke:none;stroke-width:1px;stroke-linecap:butt;stroke-linejoin:miter;stroke-opacity:1"
       inkscape:connector-curvature="0" />
    <path
       d="m 162.05624,90.342768 q 0,2.695313 -0.90821,5.039063 -0.8789,2.314453 -2.66601,4.042969 -1.75782,1.69922 -4.42383,2.69531 -2.66602,0.9961 -6.21094,0.9961 l -12.1289,0 0,16.08398 -5.59571,0 0,-41.2793 17.37305,0 q 3.66211,0 6.38672,0.90821 2.72461,0.8789 4.54101,2.51953 1.81641,1.61133 2.72461,3.92578 0.90821,2.285155 0.90821,5.068358 z m -5.625,0.05859 q 0,-3.925781 -2.40235,-5.947258 -2.40234,-2.05078 -7.20703,-2.05078 l -11.10351,0 0,16.289054 11.33789,0 q 4.83398,0 7.08984,-2.138672 2.28516,-2.138672 2.28516,-6.152344 z"
       id="path4197"
       style="font-style:normal;font-variant:normal;font-weight:normal;font-stretch:normal;font-size:medium;line-height:105.99999428%;font-family:'Liberation Sans';-inkscape-font-specification:'Liberation Sans';text-align:start;letter-spacing:0px;word-spacing:0px;text-anchor:start;fill:#cccccc;fill-opacity:1;stroke:none;stroke-width:1px;stroke-linecap:butt;stroke-linejoin:miter;stroke-opacity:1"
       inkscape:connector-curvature="0" />
    <path
       d="m 182.97421,119.20019 q -1.11329,2.87109 -2.28516,5.15625 -1.14258,2.31445 -2.57813,3.92578 -1.43554,1.64063 -3.19336,2.49024 -1.75781,0.8789 -4.04296,0.8789 -0.9961,0 -1.84571,-0.0586 -0.84961,-0.0586 -1.78711,-0.26367 l 0,-3.95508 q 0.55664,0.0879 1.25977,0.11719 0.70312,0.0586 1.20117,0.0586 2.31445,0 4.30664,-1.72852 1.99219,-1.72851 3.48633,-5.50781 l 0.49805,-1.25976 -12.56836,-31.552738 5.625,0 6.67968,17.519528 q 0.29297,0.79102 0.73243,2.10938 0.46875,1.31836 0.9082,2.63672 0.46875,1.31836 0.82031,2.37304 0.35156,1.05469 0.41016,1.31836 0.0879,-0.32226 0.41015,-1.25976 0.35157,-0.9668 0.76172,-2.13867 0.43946,-1.17188 0.87891,-2.37305 0.43945,-1.20117 0.73242,-2.08008 l 6.21094,-18.105468 5.56641,0 -12.1875,31.699218 z"
       id="path4199"
       style="font-style:normal;font-variant:normal;font-weight:normal;font-stretch:normal;font-size:medium;line-height:105.99999428%;font-family:'Liberation Sans';-inkscape-font-specification:'Liberation Sans';text-align:start;letter-spacing:0px;word-spacing:0px;text-anchor:start;fill:#cccccc;fill-opacity:1;stroke:none;stroke-width:1px;stroke-linecap:butt;stroke-linejoin:miter;stroke-opacity:1"
       inkscape:connector-curvature="0" />
    <path
       d="m 211.50936,118.96582 q -1.20117,0.32226 -2.46094,0.49804 -1.23047,0.20508 -2.87109,0.20508 -6.32812,0 -6.32812,-7.17773 l 0,-21.152348 -3.66211,0 0,-3.83789 3.86718,0 1.55274,-7.089842 3.51562,0 0,7.089842 5.85938,0 0,3.83789 -5.85938,0 0,20.009768 q 0,2.28515 0.73242,3.22265 0.76172,0.90821 2.60743,0.90821 0.76171,0 1.46484,-0.11719 0.73242,-0.11719 1.58203,-0.29297 l 0,3.89649 z"
       id="path4201"
       style="font-style:normal;font-variant:normal;font-weight:normal;font-stretch:normal;font-size:medium;line-height:105.99999428%;font-family:'Liberation Sans';-inkscape-font-specification:'Liberation Sans';text-align:start;letter-spacing:0px;word-spacing:0px;text-anchor:start;fill:#cccccc;fill-opacity:1;stroke:none;stroke-width:1px;stroke-linecap:butt;stroke-linejoin:miter;stroke-opacity:1"
       inkscape:connector-curvature="0" />
    <path
       d="m 221.20663,92.920893 q 0.8789,-1.611328 1.90429,-2.724609 1.02539,-1.142578 2.25586,-1.875 1.23047,-0.732422 2.69532,-1.054687 1.46484,-0.351563 3.28125,-0.351563 3.04687,0 4.98046,0.820313 1.96289,0.820312 3.07618,2.314453 1.14257,1.464843 1.55273,3.515625 0.43945,2.050781 0.43945,4.511718 l 0,21.123047 -5.30273,0 0,-20.097656 q 0,-2.021484 -0.26367,-3.544922 -0.23438,-1.523437 -0.9375,-2.519531 -0.70313,-1.025391 -1.99219,-1.523438 -1.28906,-0.527343 -3.33984,-0.527343 -1.875,0 -3.39844,0.673828 -1.49414,0.673828 -2.57813,1.904297 -1.05468,1.230468 -1.64062,2.988281 -0.58594,1.757812 -0.58594,3.955074 l 0,18.69141 -5.27344,0 0,-43.47656 5.27344,0 0,11.308592 q 0,0.966796 -0.0293,1.933593 -0.0293,0.966797 -0.0879,1.78711 -0.0293,0.820312 -0.0586,1.40625 -0.0293,0.55664 -0.0586,0.761718 l 0.0879,0 z"
       id="path4203"
       style="font-style:normal;font-variant:normal;font-weight:normal;font-stretch:normal;font-size:medium;line-height:105.99999428%;font-family:'Liberation Sans';-inkscape-font-specification:'Liberation Sans';text-align:start;letter-spacing:0px;word-spacing:0px;text-anchor:start;fill:#cccccc;fill-opacity:1;stroke:none;stroke-width:1px;stroke-linecap:butt;stroke-linejoin:miter;stroke-opacity:1"
       inkscape:connector-curvature="0" />
    <path
       d="m 276.16756,103.32128 q 0,8.32032 -3.66211,12.39258 -3.6621,4.07227 -10.63476,4.07227 -3.31055,0 -5.91797,-0.9961 -2.60742,-0.99609 -4.42383,-3.04687 -1.78711,-2.05078 -2.7539,-5.12695 -0.9375,-3.10547 -0.9375,-7.29493 0,-16.406246 14.20898,-16.406246 3.69141,0 6.35742,1.025391 2.69531,1.02539 4.39453,3.076172 1.72852,2.050781 2.54883,5.126953 0.82031,3.076172 0.82031,7.17773 z m -5.53711,0 q 0,-3.691402 -0.58593,-6.093746 -0.55664,-2.402344 -1.66992,-3.837891 -1.08399,-1.435546 -2.66602,-1.992187 -1.58203,-0.585938 -3.57422,-0.585938 -2.02148,0 -3.66211,0.615235 -1.61133,0.585937 -2.7539,2.050781 -1.14258,1.435547 -1.75782,3.837891 -0.58593,2.402343 -0.58593,6.005855 0,3.69141 0.64453,6.12305 0.64453,2.40235 1.75781,3.83789 1.14258,1.43555 2.66601,2.02149 1.55274,0.58593 3.36915,0.58593 2.02148,0 3.6621,-0.55664 1.64063,-0.58593 2.78321,-2.02148 1.14258,-1.43555 1.75781,-3.86719 0.61523,-2.43164 0.61523,-6.12305 z"
       id="path4205"
       style="font-style:normal;font-variant:normal;font-weight:normal;font-stretch:normal;font-size:medium;line-height:105.99999428%;font-family:'Liberation Sans';-inkscape-font-specification:'Liberation Sans';text-align:start;letter-spacing:0px;word-spacing:0px;text-anchor:start;fill:#cccccc;fill-opacity:1;stroke:none;stroke-width:1px;stroke-linecap:butt;stroke-linejoin:miter;stroke-opacity:1"
       inkscape:connector-curvature="0" />
    <path
       d="m 302.88631,119.20019 0,-20.097656 q 0,-2.314453 -0.35156,-3.867187 -0.32226,-1.552735 -1.08398,-2.490235 -0.76172,-0.966797 -2.02149,-1.347656 -1.23047,-0.410156 -3.07617,-0.410156 -1.875,0 -3.39844,0.673828 -1.49414,0.644531 -2.57812,1.904297 -1.05469,1.230468 -1.64063,3.076172 -0.58593,1.816406 -0.58593,4.189453 l 0,18.36914 -5.27344,0 0,-24.93164 q 0,-0.996094 -0.0293,-2.080078 0,-1.113282 -0.0293,-2.080079 -0.0293,-0.996093 -0.0586,-1.699218 -0.0293,-0.703125 -0.0586,-0.908203 l 4.98047,0 q 0.0293,0.146484 0.0586,0.791015 0.0293,0.644531 0.0586,1.494141 0.0586,0.820312 0.0879,1.699219 0.0293,0.849609 0.0293,1.435546 l 0.0879,0 q 0.76172,-1.376953 1.66992,-2.490234 0.90821,-1.113281 2.10938,-1.875 1.20117,-0.791016 2.7539,-1.201172 1.55274,-0.439453 3.60352,-0.439453 2.63672,0 4.54102,0.644531 1.90429,0.644532 3.13476,1.992188 1.23047,1.347656 1.78711,3.486328 0.58594,2.109375 0.58594,5.039062 l 0,21.123047 -5.30274,0 z"
       id="path4207"
       style="font-style:normal;font-variant:normal;font-weight:normal;font-stretch:normal;font-size:medium;line-height:105.99999428%;font-family:'Liberation Sans';-inkscape-font-specification:'Liberation Sans';text-align:start;letter-spacing:0px;word-spacing:0px;text-anchor:start;fill:#cccccc;fill-opacity:1;stroke:none;stroke-width:1px;stroke-linecap:butt;stroke-linejoin:miter;stroke-opacity:1"
       inkscape:connector-curvature="0" />
    <path
       d="m 365.61092,107.56933 q 0,3.13477 -1.23047,5.36133 -1.23046,2.19727 -3.31054,3.60352 -2.08008,1.37695 -4.83399,2.02148 -2.7539,0.64453 -5.80078,0.64453 l -16.75781,0 0,-41.2793 15,0 q 3.42773,0 6.12305,0.58594 2.69531,0.55664 4.57031,1.78711 1.875,1.23047 2.8418,3.13477 0.99609,1.875 0.99609,4.511715 0,1.728515 -0.49805,3.251953 -0.46875,1.523437 -1.46484,2.783203 -0.9668,1.230469 -2.46094,2.138672 -1.46484,0.878906 -3.42773,1.318359 2.49023,0.292969 4.39453,1.142578 1.93359,0.84961 3.22265,2.16797 1.28907,1.31836 1.9629,3.07617 0.67382,1.72852 0.67382,3.75 z m -8.02734,-18.955077 q 0,-3.339843 -2.28516,-4.775393 -2.28515,-1.43554 -6.62109,-1.43554 l -9.4043,0 0,13.066402 9.4043,0 q 2.46094,0 4.16016,-0.46875 1.69921,-0.498047 2.7539,-1.376954 1.05469,-0.908203 1.52344,-2.167968 0.46875,-1.259766 0.46875,-2.841797 z m 2.37305,18.515627 q 0,-1.96289 -0.73243,-3.33985 -0.70312,-1.37695 -2.05078,-2.25585 -1.34765,-0.87891 -3.25195,-1.28907 -1.875,-0.410154 -4.21875,-0.410154 l -10.42969,0 0,14.882814 10.86914,0 q 2.13868,0 3.92578,-0.35156 1.81641,-0.35157 3.10547,-1.23047 1.31836,-0.87891 2.05078,-2.34375 0.73243,-1.46485 0.73243,-3.66211 z"
       id="path4209"
       style="font-style:normal;font-variant:normal;font-weight:normal;font-stretch:normal;font-size:medium;line-height:105.99999428%;font-family:'Liberation Sans';-inkscape-font-specification:'Liberation Sans';text-align:start;letter-spacing:0px;word-spacing:0px;text-anchor:start;fill:#cccccc;fill-opacity:1;stroke:none;stroke-width:1px;stroke-linecap:butt;stroke-linejoin:miter;stroke-opacity:1"
       inkscape:connector-curvature="0" />
    <path
       d="m 372.99374,119.20019 0,-24.316406 q 0,-0.996094 -0.0293,-2.021484 0,-1.054688 -0.0293,-2.021485 -0.0293,-0.966797 -0.0586,-1.816406 -0.0293,-0.849609 -0.0586,-1.523437 l 4.98047,0 q 0.0293,0.673828 0.0586,1.552734 0.0586,0.849609 0.0879,1.757812 0.0586,0.908204 0.0586,1.757813 0.0293,0.820312 0.0293,1.40625 l 0.11719,0 q 0.55664,-1.816406 1.17187,-3.134766 0.64453,-1.347656 1.49414,-2.197265 0.84961,-0.878907 2.02149,-1.289063 1.17187,-0.439453 2.84179,-0.439453 0.64453,0 1.23047,0.117188 0.58594,0.08789 0.9082,0.175781 l 0,4.833984 q -0.52734,-0.146484 -1.23046,-0.205078 -0.70313,-0.08789 -1.58204,-0.08789 -1.8164,0 -3.10546,0.820313 -1.25977,0.820312 -2.08008,2.285156 -0.79102,1.435547 -1.17188,3.457031 -0.38086,1.992191 -0.38086,4.365231 l 0,16.52344 -5.27343,0 z"
       id="path4211"
       style="font-style:normal;font-variant:normal;font-weight:normal;font-stretch:normal;font-size:medium;line-height:105.99999428%;font-family:'Liberation Sans';-inkscape-font-specification:'Liberation Sans';text-align:start;letter-spacing:0px;word-spacing:0px;text-anchor:start;fill:#cccccc;fill-opacity:1;stroke:none;stroke-width:1px;stroke-linecap:butt;stroke-linejoin:miter;stroke-opacity:1"
       inkscape:connector-curvature="0" />
    <path
       d="m 401.00155,119.78613 q -4.77539,0 -7.17774,-2.51953 -2.40234,-2.51953 -2.40234,-6.91407 0,-3.13476 1.17188,-5.12695 1.20117,-2.02148 3.10546,-3.16406 1.9336,-1.14258 4.39454,-1.58203 2.46093,-0.43946 5.00976,-0.49805 l 7.11914,-0.117187 0,-1.728516 q 0,-1.96289 -0.41015,-3.339844 -0.41016,-1.376953 -1.25977,-2.226562 -0.84961,-0.849609 -2.13867,-1.230469 -1.25977,-0.410156 -2.98828,-0.410156 -1.52344,0 -2.75391,0.234375 -1.23047,0.205078 -2.13867,0.791016 -0.9082,0.55664 -1.46485,1.552734 -0.55664,0.966797 -0.73242,2.460937 l -5.50781,-0.498046 q 0.29297,-1.875 1.11328,-3.427735 0.82031,-1.582031 2.31445,-2.724609 1.52344,-1.142578 3.7793,-1.757813 2.28516,-0.644531 5.50781,-0.644531 5.97657,0 8.99414,2.753906 3.01758,2.72461 3.01758,7.910157 l 0,13.652343 q 0,2.34375 0.61524,3.54492 0.61523,1.17188 2.34375,1.17188 0.43945,0 0.8789,-0.0586 0.43946,-0.0586 0.84961,-0.14649 l 0,3.28125 q -0.99609,0.23438 -1.99218,0.35157 -0.9668,0.11718 -2.08008,0.11718 -1.49414,0 -2.57813,-0.38086 -1.05469,-0.41015 -1.72851,-1.20117 -0.67383,-0.82031 -1.02539,-1.99219 -0.35157,-1.20117 -0.43946,-2.7832 l -0.17578,0 q -0.84961,1.52344 -1.875,2.75391 -0.99609,1.23047 -2.34375,2.10937 -1.34765,0.84961 -3.07617,1.31836 -1.69922,0.46875 -3.92578,0.46875 z m 1.20117,-3.95508 q 2.51953,0 4.39453,-0.9082 1.9043,-0.9375 3.13477,-2.37305 1.25976,-1.43555 1.875,-3.13477 0.61523,-1.69921 0.61523,-3.25195 l 0,-2.60742 -5.77148,0.11719 q -1.9336,0.0293 -3.69141,0.29297 -1.72851,0.23437 -3.04687,0.96679 -1.31836,0.73242 -2.10938,2.05078 -0.76172,1.31836 -0.76172,3.45704 0,2.57812 1.37696,3.98437 1.40625,1.40625 3.98437,1.40625 z"
       id="path4213"
       style="font-style:normal;font-variant:normal;font-weight:normal;font-stretch:normal;font-size:medium;line-height:105.99999428%;font-family:'Liberation Sans';-inkscape-font-specification:'Liberation Sans';text-align:start;letter-spacing:0px;word-spacing:0px;text-anchor:start;fill:#cccccc;fill-opacity:1;stroke:none;stroke-width:1px;stroke-linecap:butt;stroke-linejoin:miter;stroke-opacity:1"
       inkscape:connector-curvature="0" />
    <path
       d="m 450.10311,110.44043 q 0,2.22656 -0.87891,3.98437 -0.8496,1.72852 -2.49023,2.92969 -1.64062,1.17187 -4.04297,1.8164 -2.37305,0.61524 -5.44922,0.61524 -2.7539,0 -4.98047,-0.43945 -2.19726,-0.41016 -3.86718,-1.34766 -1.66993,-0.9375 -2.8125,-2.46094 -1.11328,-1.55273 -1.64063,-3.7793 l 4.6582,-0.9082 q 0.67383,2.54883 2.78321,3.75 2.10937,1.17188 5.85937,1.17188 1.69922,0 3.10547,-0.23438 1.43555,-0.23437 2.46094,-0.79101 1.02539,-0.58594 1.58203,-1.52344 0.58594,-0.9668 0.58594,-2.37305 0,-1.43555 -0.67383,-2.34375 -0.67383,-0.9375 -1.875,-1.55273 -1.20117,-0.61524 -2.92969,-1.05469 -1.69922,-0.46875 -3.75,-1.02539 -1.90429,-0.49805 -3.77929,-1.11328 -1.875,-0.61524 -3.39844,-1.61133 -1.49414,-1.02539 -2.43164,-2.519532 -0.9375,-1.494141 -0.9375,-3.75 0,-4.335938 3.07617,-6.591797 3.10547,-2.285156 9.02344,-2.285156 5.24414,0 8.32031,1.845703 3.10547,1.845703 3.92578,5.917969 l -4.74609,0.585937 q -0.26368,-1.230469 -0.9668,-2.050781 -0.70313,-0.84961 -1.69922,-1.347656 -0.99609,-0.527344 -2.25586,-0.732422 -1.23047,-0.234375 -2.57812,-0.234375 -3.57422,0 -5.27344,1.083984 -1.69922,1.083984 -1.69922,3.28125 0,1.289063 0.61523,2.138672 0.64454,0.820312 1.75782,1.40625 1.14258,0.556641 2.72461,0.996094 1.58203,0.41016 3.48632,0.87891 1.25977,0.32226 2.57813,0.70312 1.31836,0.35156 2.54883,0.87891 1.25976,0.49804 2.34375,1.20117 1.11328,0.67383 1.93359,1.64062 0.82031,0.9668 1.28906,2.25586 0.49805,1.28907 0.49805,2.98829 z"
       id="path4215"
       style="font-style:normal;font-variant:normal;font-weight:normal;font-stretch:normal;font-size:medium;line-height:105.99999428%;font-family:'Liberation Sans';-inkscape-font-specification:'Liberation Sans';text-align:start;letter-spacing:0px;word-spacing:0px;text-anchor:start;fill:#cccccc;fill-opacity:1;stroke:none;stroke-width:1px;stroke-linecap:butt;stroke-linejoin:miter;stroke-opacity:1"
       inkscape:connector-curvature="0" />
    <path
       d="m 456.28475,80.76269 0,-5.03906 5.27344,0 0,5.03906 -5.27344,0 z m 0,38.4375 0,-31.699218 5.27344,0 0,31.699218 -5.27344,0 z"
       id="path4217"
       style="font-style:normal;font-variant:normal;font-weight:normal;font-stretch:normal;font-size:medium;line-height:105.99999428%;font-family:'Liberation Sans';-inkscape-font-specification:'Liberation Sans';text-align:start;letter-spacing:0px;word-spacing:0px;text-anchor:start;fill:#cccccc;fill-opacity:1;stroke:none;stroke-width:1px;stroke-linecap:butt;stroke-linejoin:miter;stroke-opacity:1"
       inkscape:connector-curvature="0" />
    <path
       d="m 469.67342,119.20019 0,-43.47656 5.27344,0 0,43.47656 -5.27344,0 z"
       id="path4219"
       style="font-style:normal;font-variant:normal;font-weight:normal;font-stretch:normal;font-size:medium;line-height:105.99999428%;font-family:'Liberation Sans';-inkscape-font-specification:'Liberation Sans';text-align:start;letter-spacing:0px;word-spacing:0px;text-anchor:start;fill:#cccccc;fill-opacity:1;stroke:none;stroke-width:1px;stroke-linecap:butt;stroke-linejoin:miter;stroke-opacity:1"
       inkscape:connector-curvature="0" />
  </g>
</svg>
